<?xml version="1.0" encoding="UTF-8" standalone="no"?>
<!DOCTYPE svg PUBLIC "-//W3C//DTD SVG 1.1//EN"
 "http://www.w3.org/Graphics/SVG/1.1/DTD/svg11.dtd">
<!-- Generated by graphviz version 2.38.0 (20140413.2041)
 -->
<!-- Title: 3D Data Visualisation Pages: 1 -->
<svg width="396pt" height="188pt"
 viewBox="0.00 0.00 396.44 188.00" xmlns="http://www.w3.org/2000/svg" xmlns:xlink="http://www.w3.org/1999/xlink">
<g id="graph0" class="graph" transform="scale(1 1) rotate(0) translate(4 184)">
<title>3D Data Visualisation</title>
<!-- BSD -->
<g id="node1" class="node"><title>BSD</title>
<ellipse fill="#ff0000" stroke="black" cx="66.9441" cy="-162" rx="66.8882" ry="18"/>
<text text-anchor="middle" x="66.9441" y="-158.3" font-family="Times,serif" font-size="14.00">BeSpaceD Data</text>
</g>
<!-- Scala -->
<g id="node2" class="node"><title>Scala</title>
<ellipse fill="#ff0000" stroke="black" cx="181.944" cy="-162" rx="29.795" ry="18"/>
<text text-anchor="middle" x="181.944" y="-158.3" font-family="Times,serif" font-size="14.00">Scala</text>
</g>
<!-- BSD&#45;&gt;Scala -->
<g id="edge1" class="edge"><title>BSD&#45;&gt;Scala</title>
<path fill="none" stroke="black" d="M134.327,-162C136.786,-162 139.244,-162 141.703,-162"/>
<polygon fill="black" stroke="black" points="141.811,-165.5 151.811,-162 141.811,-158.5 141.811,-165.5"/>
</g>
<!-- NodeJS -->
<g id="node3" class="node"><title>NodeJS</title>
<ellipse fill="#ff0000" stroke="black" cx="267.944" cy="-162" rx="38.1938" ry="18"/>
<text text-anchor="middle" x="267.944" y="-158.3" font-family="Times,serif" font-size="14.00">NodeJS</text>
</g>
<!-- Scala&#45;&gt;NodeJS -->
<g id="edge2" class="edge"><title>Scala&#45;&gt;NodeJS</title>
<path fill="none" stroke="black" d="M211.842,-162C214.308,-162 216.773,-162 219.239,-162"/>
<polygon fill="black" stroke="black" points="219.374,-165.5 229.374,-162 219.374,-158.5 219.374,-165.5"/>
</g>
<!-- WebGL -->
<g id="node4" class="node"><title>WebGL</title>
<ellipse fill="#00ff00" stroke="black" cx="218.944" cy="-90" rx="39.7935" ry="18"/>
<text text-anchor="middle" x="218.944" y="-86.3" font-family="Times,serif" font-size="14.00">WebGL</text>
</g>
<!-- NodeJS&#45;&gt;WebGL -->
<g id="edge3" class="edge"><title>NodeJS&#45;&gt;WebGL</title>
<path fill="none" stroke="black" d="M256.579,-144.765C250.605,-136.23 243.152,-125.582 236.457,-116.019"/>
<polygon fill="black" stroke="black" points="239.189,-113.819 230.587,-107.633 233.455,-117.833 239.189,-113.819"/>
</g>
<!-- Three -->
<g id="node5" class="node"><title>Three</title>
<ellipse fill="#00ff00" stroke="black" cx="315.944" cy="-90" rx="39.7935" ry="18"/>
<text text-anchor="middle" x="315.944" y="-86.3" font-family="Times,serif" font-size="14.00">Three.js</text>
</g>
<!-- NodeJS&#45;&gt;Three -->
<g id="edge4" class="edge"><title>NodeJS&#45;&gt;Three</title>
<path fill="none" stroke="black" d="M279.077,-144.765C284.929,-136.23 292.231,-125.582 298.788,-116.019"/>
<polygon fill="black" stroke="black" points="301.77,-117.86 304.538,-107.633 295.996,-113.901 301.77,-117.86"/>
</g>
<!-- SAGE2 -->
<g id="node6" class="node"><title>SAGE2</title>
<ellipse fill="#ff00ff" stroke="black" cx="266.944" cy="-18" rx="38.1938" ry="18"/>
<text text-anchor="middle" x="266.944" y="-14.3" font-family="Times,serif" font-size="14.00">SAGE2</text>
</g>
<!-- WebGL&#45;&gt;SAGE2 -->
<g id="edge5" class="edge"><title>WebGL&#45;&gt;SAGE2</title>
<path fill="none" stroke="black" d="M230.319,-72.411C236.178,-63.8677 243.439,-53.2785 249.947,-43.7874"/>
<polygon fill="black" stroke="black" points="252.882,-45.6966 255.65,-35.4699 247.108,-41.7379 252.882,-45.6966"/>
</g>
<!-- Three&#45;&gt;SAGE2 -->
<g id="edge6" class="edge"><title>Three&#45;&gt;SAGE2</title>
<path fill="none" stroke="black" d="M304.332,-72.411C298.351,-63.8677 290.939,-53.2785 284.295,-43.7874"/>
<polygon fill="black" stroke="black" points="287.075,-41.6552 278.473,-35.4699 281.34,-45.6694 287.075,-41.6552"/>
</g>
<!-- Client -->
<g id="node7" class="node"><title>Client</title>
<ellipse fill="#00ffff" stroke="black" cx="355.944" cy="-18" rx="32.4942" ry="18"/>
<text text-anchor="middle" x="355.944" y="-14.3" font-family="Times,serif" font-size="14.00">Client</text>
</g>
<!-- SAGE2&#45;&gt;Client -->
<g id="edge7" class="edge"><title>SAGE2&#45;&gt;Client</title>
<path fill="none" stroke="black" d="M305.534,-18C308.026,-18 310.518,-18 313.011,-18"/>
<polygon fill="black" stroke="black" points="313.256,-21.5001 323.256,-18 313.256,-14.5001 313.256,-21.5001"/>
</g>
</g>
</svg>
