<?xml version="1.0" encoding="UTF-8" standalone="no"?>
<!DOCTYPE svg PUBLIC "-//W3C//DTD SVG 1.1//EN"
 "http://www.w3.org/Graphics/SVG/1.1/DTD/svg11.dtd">
<!-- Generated by graphviz version 2.38.0 (20140413.2041)
 -->
<!-- Title: Euclidian Pages: 1 -->
<svg width="511pt" height="476pt"
 viewBox="0.00 0.00 510.74 476.00" xmlns="http://www.w3.org/2000/svg" xmlns:xlink="http://www.w3.org/1999/xlink">
<g id="graph0" class="graph" transform="scale(1 1) rotate(0) translate(4 472)">
<title>Euclidian</title>
<!-- NeCTAR -->
<g id="node1" class="node"><title>NeCTAR</title>
<ellipse fill="#ffff00" stroke="black" cx="263.397" cy="-450" rx="44.393" ry="18"/>
<text text-anchor="middle" x="263.397" y="-446.3" font-family="Times,serif" font-size="14.00">NeCTAR</text>
</g>
<!-- Linux -->
<g id="node2" class="node"><title>Linux</title>
<ellipse fill="#ffff00" stroke="black" cx="263.397" cy="-378" rx="31.6951" ry="18"/>
<text text-anchor="middle" x="263.397" y="-374.3" font-family="Times,serif" font-size="14.00">Linux</text>
</g>
<!-- NeCTAR&#45;&gt;Linux -->
<g id="edge1" class="edge"><title>NeCTAR&#45;&gt;Linux</title>
<path fill="none" stroke="black" d="M263.397,-431.697C263.397,-423.983 263.397,-414.712 263.397,-406.112"/>
<polygon fill="black" stroke="black" points="266.897,-406.104 263.397,-396.104 259.897,-406.104 266.897,-406.104"/>
</g>
<!-- ServerSide -->
<g id="node3" class="node"><title>ServerSide</title>
<ellipse fill="#ffff00" stroke="black" cx="263.397" cy="-306" rx="49.2915" ry="18"/>
<text text-anchor="middle" x="263.397" y="-302.3" font-family="Times,serif" font-size="14.00">ServerSide</text>
</g>
<!-- Linux&#45;&gt;ServerSide -->
<g id="edge2" class="edge"><title>Linux&#45;&gt;ServerSide</title>
<path fill="none" stroke="black" d="M263.397,-359.697C263.397,-351.983 263.397,-342.712 263.397,-334.112"/>
<polygon fill="black" stroke="black" points="266.897,-334.104 263.397,-324.104 259.897,-334.104 266.897,-334.104"/>
</g>
<!-- Scala -->
<g id="node4" class="node"><title>Scala</title>
<ellipse fill="#ff0000" stroke="black" cx="378.397" cy="-234" rx="29.795" ry="18"/>
<text text-anchor="middle" x="378.397" y="-230.3" font-family="Times,serif" font-size="14.00">Scala</text>
</g>
<!-- ServerSide&#45;&gt;Scala -->
<g id="edge3" class="edge"><title>ServerSide&#45;&gt;Scala</title>
<path fill="none" stroke="black" d="M287.785,-290.155C305.771,-279.207 330.314,-264.268 349.321,-252.698"/>
<polygon fill="black" stroke="black" points="351.165,-255.674 357.887,-247.484 347.525,-249.694 351.165,-255.674"/>
</g>
<!-- BeSpaceD -->
<g id="node5" class="node"><title>BeSpaceD</title>
<ellipse fill="#ff0000" stroke="black" cx="378.397" cy="-162" rx="48.1917" ry="18"/>
<text text-anchor="middle" x="378.397" y="-158.3" font-family="Times,serif" font-size="14.00">BeSpaceD</text>
</g>
<!-- ServerSide&#45;&gt;BeSpaceD -->
<g id="edge4" class="edge"><title>ServerSide&#45;&gt;BeSpaceD</title>
<path fill="none" stroke="black" d="M276.814,-288.433C296.982,-263.529 335.234,-216.297 358.609,-187.433"/>
<polygon fill="black" stroke="black" points="361.492,-189.436 365.065,-179.462 356.052,-185.03 361.492,-189.436"/>
</g>
<!-- NodeJS -->
<g id="node6" class="node"><title>NodeJS</title>
<ellipse fill="#ff0000" stroke="black" cx="464.397" cy="-234" rx="38.1938" ry="18"/>
<text text-anchor="middle" x="464.397" y="-230.3" font-family="Times,serif" font-size="14.00">NodeJS</text>
</g>
<!-- ServerSide&#45;&gt;NodeJS -->
<g id="edge10" class="edge"><title>ServerSide:e&#45;&gt;NodeJS</title>
<path fill="none" stroke="black" d="M314.397,-306C361.396,-306 409.403,-277.172 438.051,-256.254"/>
<polygon fill="black" stroke="black" points="440.406,-258.863 446.298,-250.057 436.201,-253.267 440.406,-258.863"/>
</g>
<!-- HTML -->
<g id="node7" class="node"><title>HTML</title>
<ellipse fill="#00ff00" stroke="black" cx="36.3968" cy="-162" rx="36.2938" ry="18"/>
<text text-anchor="middle" x="36.3968" y="-158.3" font-family="Times,serif" font-size="14.00">HTML</text>
</g>
<!-- ServerSide&#45;&gt;HTML -->
<g id="edge5" class="edge"><title>ServerSide&#45;&gt;HTML</title>
<path fill="none" stroke="black" d="M236.747,-290.682C217.754,-280.307 191.736,-265.744 169.397,-252 132.617,-229.371 91.4715,-201.412 64.8192,-182.938"/>
<polygon fill="black" stroke="black" points="66.5718,-179.893 56.3635,-177.057 62.5751,-185.64 66.5718,-179.893"/>
</g>
<!-- CSS -->
<g id="node8" class="node"><title>CSS</title>
<ellipse fill="#00ff00" stroke="black" cx="117.397" cy="-162" rx="27" ry="18"/>
<text text-anchor="middle" x="117.397" y="-158.3" font-family="Times,serif" font-size="14.00">CSS</text>
</g>
<!-- ServerSide&#45;&gt;CSS -->
<g id="edge6" class="edge"><title>ServerSide&#45;&gt;CSS</title>
<path fill="none" stroke="black" d="M246.933,-288.987C220.645,-263.419 169.154,-213.339 139.624,-184.618"/>
<polygon fill="black" stroke="black" points="141.876,-181.926 132.267,-177.463 136.996,-186.944 141.876,-181.926"/>
</g>
<!-- JS -->
<g id="node9" class="node"><title>JS</title>
<ellipse fill="#00ff00" stroke="black" cx="189.397" cy="-162" rx="27" ry="18"/>
<text text-anchor="middle" x="189.397" y="-158.3" font-family="Times,serif" font-size="14.00">JS</text>
</g>
<!-- ServerSide&#45;&gt;JS -->
<g id="edge7" class="edge"><title>ServerSide&#45;&gt;JS</title>
<path fill="none" stroke="black" d="M252.142,-288.136C245.487,-277.878 237.082,-264.404 230.397,-252 219.229,-231.277 208.155,-206.954 200.337,-188.977"/>
<polygon fill="black" stroke="black" points="203.515,-187.508 196.348,-179.706 197.085,-190.275 203.515,-187.508"/>
</g>
<!-- WebGL -->
<g id="node11" class="node"><title>WebGL</title>
<ellipse fill="#00ff00" stroke="black" cx="282.397" cy="-90" rx="39.7935" ry="18"/>
<text text-anchor="middle" x="282.397" y="-86.3" font-family="Times,serif" font-size="14.00">WebGL</text>
</g>
<!-- ServerSide&#45;&gt;WebGL -->
<g id="edge8" class="edge"><title>ServerSide&#45;&gt;WebGL</title>
<path fill="none" stroke="black" d="M262.664,-287.968C261.674,-258.467 260.818,-196.025 268.397,-144 269.665,-135.296 271.842,-125.969 274.106,-117.603"/>
<polygon fill="black" stroke="black" points="277.473,-118.558 276.857,-107.981 270.743,-116.634 277.473,-118.558"/>
</g>
<!-- SAGE2 -->
<g id="node12" class="node"><title>SAGE2</title>
<ellipse fill="#8892bf" stroke="black" cx="378.397" cy="-90" rx="38.1938" ry="18"/>
<text text-anchor="middle" x="378.397" y="-86.3" font-family="Times,serif" font-size="14.00">SAGE2</text>
</g>
<!-- ServerSide&#45;&gt;SAGE2 -->
<g id="edge9" class="edge"><title>ServerSide&#45;&gt;SAGE2</title>
<path fill="none" stroke="black" d="M266.77,-287.806C273.405,-256.972 290.284,-191.101 321.397,-144 329.213,-132.167 340.2,-121.129 350.444,-112.223"/>
<polygon fill="black" stroke="black" points="352.99,-114.657 358.426,-105.563 348.505,-109.282 352.99,-114.657"/>
</g>
<!-- Scala&#45;&gt;BeSpaceD -->
<g id="edge22" class="edge"><title>Scala&#45;&gt;BeSpaceD</title>
<path fill="none" stroke="black" d="M378.397,-215.697C378.397,-207.983 378.397,-198.712 378.397,-190.112"/>
<polygon fill="black" stroke="black" points="381.897,-190.104 378.397,-180.104 374.897,-190.104 381.897,-190.104"/>
</g>
<!-- BeSpaceD&#45;&gt;SAGE2 -->
<g id="edge17" class="edge"><title>BeSpaceD&#45;&gt;SAGE2</title>
<path fill="none" stroke="black" d="M378.397,-143.697C378.397,-135.983 378.397,-126.712 378.397,-118.112"/>
<polygon fill="black" stroke="black" points="381.897,-118.104 378.397,-108.104 374.897,-118.104 381.897,-118.104"/>
</g>
<!-- NodeJS&#45;&gt;SAGE2 -->
<g id="edge18" class="edge"><title>NodeJS&#45;&gt;SAGE2</title>
<path fill="none" stroke="black" d="M461.48,-215.824C457.705,-197.038 449.83,-166.598 435.397,-144 427.688,-131.93 416.593,-120.77 406.236,-111.835"/>
<polygon fill="black" stroke="black" points="408.464,-109.136 398.528,-105.458 404.002,-114.53 408.464,-109.136"/>
</g>
<!-- ClientSide -->
<g id="node13" class="node"><title>ClientSide</title>
<ellipse fill="#8892bf" stroke="black" cx="185.397" cy="-18" rx="48.1917" ry="18"/>
<text text-anchor="middle" x="185.397" y="-14.3" font-family="Times,serif" font-size="14.00">ClientSide</text>
</g>
<!-- HTML&#45;&gt;ClientSide -->
<g id="edge11" class="edge"><title>HTML&#45;&gt;ClientSide</title>
<path fill="none" stroke="black" d="M48.7262,-144.987C63.3806,-126.439 89.0523,-95.4319 114.397,-72 126.694,-60.6311 141.373,-49.346 154.184,-40.1299"/>
<polygon fill="black" stroke="black" points="156.56,-42.7367 162.703,-34.1045 152.518,-37.0218 156.56,-42.7367"/>
</g>
<!-- CSS&#45;&gt;ClientSide -->
<g id="edge12" class="edge"><title>CSS&#45;&gt;ClientSide</title>
<path fill="none" stroke="black" d="M116.148,-143.929C115.518,-125.236 116.709,-94.8758 128.397,-72 134.606,-59.8466 144.789,-49.0333 154.842,-40.3944"/>
<polygon fill="black" stroke="black" points="157.232,-42.9627 162.799,-33.9483 152.826,-37.5236 157.232,-42.9627"/>
</g>
<!-- Three -->
<g id="node10" class="node"><title>Three</title>
<ellipse fill="#00ff00" stroke="black" cx="185.397" cy="-90" rx="39.7935" ry="18"/>
<text text-anchor="middle" x="185.397" y="-86.3" font-family="Times,serif" font-size="14.00">Three.js</text>
</g>
<!-- JS&#45;&gt;Three -->
<g id="edge20" class="edge"><title>JS&#45;&gt;Three</title>
<path fill="none" stroke="black" d="M188.408,-143.697C187.967,-135.983 187.437,-126.712 186.946,-118.112"/>
<polygon fill="black" stroke="black" points="190.439,-117.888 186.374,-108.104 183.45,-118.288 190.439,-117.888"/>
</g>
<!-- JS&#45;&gt;WebGL -->
<g id="edge21" class="edge"><title>JS&#45;&gt;WebGL</title>
<path fill="none" stroke="black" d="M206.889,-147.834C220.297,-137.742 239.061,-123.618 254.529,-111.975"/>
<polygon fill="black" stroke="black" points="256.844,-114.614 262.729,-105.804 252.634,-109.021 256.844,-114.614"/>
</g>
<!-- JS&#45;&gt;ClientSide -->
<g id="edge13" class="edge"><title>JS&#45;&gt;ClientSide</title>
<path fill="none" stroke="black" d="M170.907,-148.583C158.566,-139.104 143.368,-124.831 136.397,-108 130.274,-93.2179 130.565,-86.8992 136.397,-72 140.883,-60.5378 149.141,-50.0687 157.615,-41.5182"/>
<polygon fill="black" stroke="black" points="160.159,-43.9305 165.029,-34.5213 155.354,-38.8398 160.159,-43.9305"/>
</g>
<!-- Three&#45;&gt;ClientSide -->
<g id="edge14" class="edge"><title>Three&#45;&gt;ClientSide</title>
<path fill="none" stroke="black" d="M185.397,-71.6966C185.397,-63.9827 185.397,-54.7125 185.397,-46.1124"/>
<polygon fill="black" stroke="black" points="188.897,-46.1043 185.397,-36.1043 181.897,-46.1044 188.897,-46.1043"/>
</g>
<!-- WebGL&#45;&gt;ClientSide -->
<g id="edge15" class="edge"><title>WebGL&#45;&gt;ClientSide</title>
<path fill="none" stroke="black" d="M261.826,-74.1548C248.251,-64.3587 230.248,-51.3672 215.125,-40.4535"/>
<polygon fill="black" stroke="black" points="216.766,-37.3215 206.609,-34.3077 212.67,-42.9978 216.766,-37.3215"/>
</g>
<!-- SAGE2&#45;&gt;ClientSide -->
<g id="edge16" class="edge"><title>SAGE2&#45;&gt;ClientSide</title>
<path fill="none" stroke="black" d="M347.149,-79.4136C314.032,-68.1874 261.867,-49.3933 225.705,-35.7437"/>
<polygon fill="black" stroke="black" points="226.55,-32.3207 215.959,-32.0408 224.064,-38.8643 226.55,-32.3207"/>
</g>
<!-- ClientSide&#45;&gt;SAGE2 -->
<g id="edge19" class="edge"><title>ClientSide&#45;&gt;SAGE2</title>
<path fill="none" stroke="black" d="M221.157,-30.1225C255.338,-41.8046 306.458,-60.2689 341.122,-73.4033"/>
<polygon fill="black" stroke="black" points="340.283,-76.8295 350.874,-77.1255 342.779,-70.2896 340.283,-76.8295"/>
</g>
</g>
</svg>
